<svg xmlns="http://www.w3.org/2000/svg" viewBox="0 0 405.88 105.89"><defs><style>.cls-1{fill:none;stroke:#fff;stroke-width:3px;}</style></defs><g id="Layer_2" data-name="Layer 2"><g id="Header"><path class="cls-1" d="M1.5,3.2H32.25V40.8L64.45,3.2h40.89L69,40.75l37.94,62H69.11l-21-40.92L32.25,78.42V102.7H1.5Z"/><path class="cls-1" d="M117,3.2h51.1q16.69,0,25,7.94t8.32,22.6q0,15.06-9.06,23.55t-27.66,8.48H147.9V102.7H117ZM147.9,45.62h7.53q8.9,0,12.49-3.09a10,10,0,0,0,3.6-7.91,11.05,11.05,0,0,0-3.12-7.94q-3.14-3.25-11.75-3.26H147.9Z"/><path class="cls-1" d="M283.78,62l26.94,8.15a49.66,49.66,0,0,1-8.55,18.93,37.08,37.08,0,0,1-14.49,11.47q-8.65,3.87-22,3.87-16.21,0-26.5-4.71T221.4,83.1q-7.47-11.88-7.46-30.39,0-24.69,13.13-37.95T264.23,1.5q18.79,0,29.56,7.6t16,23.35l-27.15,6a23.26,23.26,0,0,0-3-6.65,17.77,17.77,0,0,0-6.32-5.43,18.09,18.09,0,0,0-8.34-1.9q-10.46,0-16,8.4-4.22,6.24-4.21,19.6,0,16.53,5,22.67t14.12,6.14q8.82,0,13.34-5T283.78,62Z"/><path class="cls-1" d="M325.65,3.2H356.4v75h48V102.7H325.65Z"/></g></g></svg>